<svg xmlns="http://www.w3.org/2000/svg" viewBox="0 0 240 320" role="img" aria-label="綾瀬玲(チケット販売サービス事業責任者)の立ち絵">
  <defs>
    <linearGradient id="pbg" x1="0" y1="0" x2="0" y2="1">
      <stop offset="0" stop-color="#182238"/><stop offset="1" stop-color="#0e1520"/>
    </linearGradient>
    <radialGradient id="phalo" cx="0.5" cy="0.4" r="0.75">
      <stop offset="0" stop-color="#22d3ee" stop-opacity="0.09"/>
      <stop offset="0.55" stop-color="#22d3ee" stop-opacity="0.035"/>
      <stop offset="1" stop-color="#22d3ee" stop-opacity="0"/>
    </radialGradient>
  </defs>
  <rect width="240" height="320" fill="url(#pbg)"/>
  <rect width="240" height="320" fill="url(#phalo)"/>
  <!-- 後ろ髪(ダークな黒髪ボブ、肩には届かない長さ) -->
  <path d="M120,60 C79,60 59,96 62,138 C64,166 73,186 87,198 L153,198 C167,186 176,166 178,138 C181,96 161,60 120,60 Z" fill="#1c1c24"/>
  <!-- 首(襟の奥まで伸ばして隙間を作らない) -->
  <path d="M105,158 L105,226 C105,236 111,242 120,242 C129,242 135,236 135,226 L135,158 Z" fill="#e8b18c"/>
  <path d="M105,166 C109,182 131,182 135,166 L135,186 C128,194 112,194 105,186 Z" fill="#cf8f6b"/>
  <!-- 顔(卵型) -->
  <path d="M120,74 C91,74 77,101 79,131 C80,152 87,169 100,179 C107,185 133,185 140,179 C153,169 160,152 161,131 C163,101 149,74 120,74 Z" fill="#e8b18c"/>
  <path d="M121,141 C119,149 117,155 114,158 C117,160 121,160 123,158" fill="none" stroke="#c98a66" stroke-width="2.2" stroke-linecap="round"/>
  <ellipse cx="98" cy="157" rx="7" ry="4" fill="#e07a5a" opacity="0.14"/>
  <ellipse cx="142" cy="157" rx="7" ry="4" fill="#e07a5a" opacity="0.14"/>
  <!-- 前髪(額を覆うぱっつん気味のシャープなボブ) -->
  <path d="M120,66 C92,66 78,88 78,114 L80,120 L87,111 L94,118 L101,110 L108,117 L114,110 L120,117 L126,110 L132,117 L139,110 L146,118 L153,111 L160,120 L162,114 C162,88 148,66 120,66 Z" fill="#1c1c24"/>
  <path d="M96,82 Q120,71 145,83" fill="none" stroke="#3a3a46" stroke-width="2.6" stroke-linecap="round" opacity="0.6"/>
  <path d="M101,108 L103,93" stroke="#0f0f15" stroke-width="1.4" stroke-linecap="round" opacity="0.5"/>
  <path d="M126,108 L126,93" stroke="#0f0f15" stroke-width="1.4" stroke-linecap="round" opacity="0.5"/>
  <path d="M146,114 L148,99" stroke="#0f0f15" stroke-width="1.4" stroke-linecap="round" opacity="0.5"/>
  <!-- サイドの髪(顎ラインで切りそろえた直線的ボブ、鋭い印象) -->
  <path d="M81,102 C69,132 68,168 78,192 C82,199 88,202 94,199 C87,178 84,146 92,116 C88,110 84,105 81,102 Z" fill="#1c1c24"/>
  <path d="M159,102 C171,132 172,168 162,192 C158,199 152,202 146,199 C153,178 156,146 148,116 C152,110 156,105 159,102 Z" fill="#1c1c24"/>
  <path d="M80,150 L76,190" fill="none" stroke="#0f0f15" stroke-width="1.6" stroke-linecap="round" opacity="0.6"/>
  <path d="M160,150 L164,190" fill="none" stroke="#0f0f15" stroke-width="1.6" stroke-linecap="round" opacity="0.6"/>
  <!-- 服: ジャケット+ブラウス(no tie、きびきびした印象) -->
  <path d="M40,320 C46,246 76,218 104,211 C114,220 126,220 136,211 C164,218 194,246 200,320 Z" fill="#232a3d"/>
  <path d="M104,211 L120,232 L136,211 L130,250 L120,260 L110,250 Z" fill="#e9edf4"/>
  <path d="M104,211 L88,244 L104,318" fill="none" stroke="#171c2a" stroke-width="3"/>
  <path d="M136,211 L152,244 L136,318" fill="none" stroke="#171c2a" stroke-width="3"/>
  <path d="M104,211 C110,220 130,220 136,211" fill="none" stroke="#333c54" stroke-width="2"/>
  <!-- ラペル -->
  <path d="M104,211 L96,240 L112,258" fill="none" stroke="#171c2a" stroke-width="2" opacity="0.8"/>
  <path d="M136,211 L144,240 L128,258" fill="none" stroke="#171c2a" stroke-width="2" opacity="0.8"/>
  <!-- リムライト -->
  <path d="M165,114 Q173,150 164,190" fill="none" stroke="#22d3ee" stroke-width="2.5" opacity="0.5" stroke-linecap="round"/>
  <!-- 表情: 意思の強いキリッとした目 -->
  <path d="M89,127 Q101,120 113,125" fill="none" stroke="#181820" stroke-width="3" stroke-linecap="round"/>
  <path d="M151,127 Q139,120 127,125" fill="none" stroke="#181820" stroke-width="3" stroke-linecap="round"/>
  <path d="M90,139 Q100,132 112,138" fill="none" stroke="#241a12" stroke-width="2.6" stroke-linecap="round"/>
  <path d="M150,139 Q140,132 128,138" fill="none" stroke="#241a12" stroke-width="2.6" stroke-linecap="round"/>
  <circle cx="101" cy="141" r="4.4" fill="#241a12"/>
  <circle cx="139" cy="141" r="4.4" fill="#241a12"/>
  <circle cx="99.6" cy="139.2" r="1.3" fill="#ffffff" opacity="0.9"/>
  <circle cx="137.6" cy="139.2" r="1.3" fill="#ffffff" opacity="0.9"/>
  <path d="M111,168 Q120,172 129,168" fill="none" stroke="#a8543f" stroke-width="2.4" stroke-linecap="round"/>
</svg>
