<svg xmlns="http://www.w3.org/2000/svg" viewBox="0 0 240 320" role="img" aria-label="氷室悟(学習サービスCTO)の立ち絵">
  <defs>
    <linearGradient id="pbg" x1="0" y1="0" x2="0" y2="1">
      <stop offset="0" stop-color="#182238"/><stop offset="1" stop-color="#0e1520"/>
    </linearGradient>
    <radialGradient id="phalo" cx="0.5" cy="0.4" r="0.75">
      <stop offset="0" stop-color="#22d3ee" stop-opacity="0.09"/>
      <stop offset="0.55" stop-color="#22d3ee" stop-opacity="0.035"/>
      <stop offset="1" stop-color="#22d3ee" stop-opacity="0"/>
    </radialGradient>
  </defs>
  <rect width="240" height="320" fill="url(#pbg)"/>
  <rect width="240" height="320" fill="url(#phalo)"/>
  <!-- 耳 -->
  <ellipse cx="81" cy="145" rx="7" ry="11" fill="#d9a878"/>
  <ellipse cx="159" cy="145" rx="7" ry="11" fill="#d9a878"/>
  <!-- 首(襟の奥まで伸ばして隙間を作らない) -->
  <path d="M105,158 L105,226 C105,236 111,242 120,242 C129,242 135,236 135,226 L135,158 Z" fill="#d9a878"/>
  <path d="M105,166 C109,182 131,182 135,166 L135,186 C128,194 112,194 105,186 Z" fill="#b8865c"/>
  <!-- 顔(卵型・細身) -->
  <path d="M120,74 C91,74 77,101 79,131 C80,152 87,169 100,179 C107,185 133,185 140,179 C153,169 160,152 161,131 C163,101 149,74 120,74 Z" fill="#d9a878"/>
  <!-- 短髪(整った七三、落ち着いた色) -->
  <path d="M120,64 C93,64 77,86 77,114 C76,125 78,136 82,145 L90,141 C88,133 87,124 88,115 C92,99 104,91 120,91 C136,91 148,99 152,115 C153,124 152,133 150,141 L158,145 C162,136 164,125 163,114 C163,86 147,64 120,64 Z" fill="#2c2a2e"/>
  <path d="M97,78 Q120,68 143,78" fill="none" stroke="#454247" stroke-width="1.8" stroke-linecap="round" opacity="0.5"/>
  <path d="M84,100 C82,109 83,118 86,126" fill="none" stroke="#454247" stroke-width="1.6" stroke-linecap="round" opacity="0.4"/>
  <path d="M156,100 C158,109 157,118 154,126" fill="none" stroke="#454247" stroke-width="1.6" stroke-linecap="round" opacity="0.35"/>
  <!-- 眉(理知的、フラット) -->
  <path d="M90,128 Q100,124 111,127" fill="none" stroke="#2c2a2e" stroke-width="3" stroke-linecap="round"/>
  <path d="M150,128 Q140,124 129,127" fill="none" stroke="#2c2a2e" stroke-width="3" stroke-linecap="round"/>
  <!-- 目(涼しく落ち着いた目) -->
  <path d="M90,140 Q100,135 111,139" fill="none" stroke="#241a12" stroke-width="2.4" stroke-linecap="round"/>
  <path d="M150,140 Q140,135 129,139" fill="none" stroke="#241a12" stroke-width="2.4" stroke-linecap="round"/>
  <circle cx="101" cy="143" r="4" fill="#241a12"/>
  <circle cx="139" cy="143" r="4" fill="#241a12"/>
  <circle cx="99.7" cy="141.5" r="1.2" fill="#ffffff" opacity="0.85"/>
  <circle cx="137.7" cy="141.5" r="1.2" fill="#ffffff" opacity="0.85"/>
  <!-- 細フレームの眼鏡 -->
  <rect x="87" y="135" width="27" height="17" rx="5" fill="none" stroke="#9aa5b5" stroke-width="1.8" opacity="0.9"/>
  <rect x="126" y="135" width="27" height="17" rx="5" fill="none" stroke="#9aa5b5" stroke-width="1.8" opacity="0.9"/>
  <line x1="114" y1="142" x2="126" y2="142" stroke="#9aa5b5" stroke-width="1.8" opacity="0.9"/>
  <line x1="87" y1="141" x2="80" y2="142" stroke="#9aa5b5" stroke-width="1.5" opacity="0.9"/>
  <line x1="153" y1="141" x2="160" y2="142" stroke="#9aa5b5" stroke-width="1.5" opacity="0.9"/>
  <!-- 鼻(短い陰影のみ、皺は描かない) -->
  <path d="M121,150 C120,156 118,160 115,163 C118,165 122,165 124,163" fill="none" stroke="#b8865c" stroke-width="2.2" stroke-linecap="round"/>
  <!-- 口(引き締まった涼しい表情) -->
  <path d="M108,169 Q120,167 132,169" fill="none" stroke="#8a5a42" stroke-width="2.2" stroke-linecap="round"/>
  <!-- 服: カーディガン(落ち着いた色、Vネック) -->
  <path d="M40,320 C46,246 76,220 104,214 C114,223 126,223 136,214 C164,220 194,246 200,320 Z" fill="#c7ccd6"/>
  <path d="M40,320 C46,246 76,220 104,214 L114,226 L100,320 Z" fill="#4c5a52"/>
  <path d="M200,320 C194,246 164,220 136,214 L126,226 L140,320 Z" fill="#4c5a52"/>
  <path d="M40,320 C46,246 76,220 104,214 L111,226 C86,234 64,262 60,320 Z" fill="#3a463f"/>
  <path d="M200,320 C194,246 164,220 136,214 L129,226 C154,234 176,262 180,320 Z" fill="#3a463f"/>
  <path d="M104,214 C110,222 130,222 136,214" fill="none" stroke="#dfe4ea" stroke-width="2"/>
  <!-- カーディガンの前立てボタン -->
  <circle cx="107" cy="248" r="2.4" fill="#2c352f"/>
  <circle cx="103" cy="278" r="2.4" fill="#2c352f"/>
  <circle cx="133" cy="248" r="2.4" fill="#2c352f"/>
  <circle cx="137" cy="278" r="2.4" fill="#2c352f"/>
  <!-- リムライト -->
  <path d="M165,114 Q173,150 164,190" fill="none" stroke="#22d3ee" stroke-width="2.5" opacity="0.5" stroke-linecap="round"/>
</svg>
